<svg width="250" height="250" viewBox="0 0 250 250" fill="none" xmlns="http://www.w3.org/2000/svg">
<rect width="250" height="250" rx="20" fill="#101E37"/>
<path d="M64.06 153L51.66 134.6V153H35.98V93.8H51.66V125.72L64.06 108.12H82.86L65.18 130.68L83.18 153H64.06ZM95.6969 103.96C92.9235 103.96 90.6835 103.213 88.9769 101.72C87.3235 100.173 86.4969 98.2533 86.4969 95.96C86.4969 93.6133 87.3235 91.6667 88.9769 90.12C90.6835 88.5733 92.9235 87.8 95.6969 87.8C98.4169 87.8 100.604 88.5733 102.257 90.12C103.964 91.6667 104.817 93.6133 104.817 95.96C104.817 98.2533 103.964 100.173 102.257 101.72C100.604 103.213 98.4169 103.96 95.6969 103.96ZM103.457 108.12V153H87.7769V108.12H103.457ZM171.026 107.72C176.68 107.72 181.106 109.427 184.306 112.84C187.56 116.253 189.186 120.92 189.186 126.84V153H173.506V128.92C173.506 126.52 172.84 124.653 171.506 123.32C170.173 121.987 168.36 121.32 166.066 121.32C163.773 121.32 161.96 121.987 160.626 123.32C159.293 124.653 158.626 126.52 158.626 128.92V153H142.946V128.92C142.946 126.52 142.28 124.653 140.946 123.32C139.666 121.987 137.88 121.32 135.586 121.32C133.24 121.32 131.4 121.987 130.066 123.32C128.733 124.653 128.066 126.52 128.066 128.92V153H112.386V108.12H128.066V114.04C129.453 112.12 131.24 110.6 133.426 109.48C135.666 108.307 138.226 107.72 141.106 107.72C144.413 107.72 147.346 108.44 149.906 109.88C152.52 111.32 154.573 113.347 156.066 115.96C157.666 113.507 159.773 111.533 162.386 110.04C165 108.493 167.88 107.72 171.026 107.72ZM205.697 103.96C202.924 103.96 200.684 103.213 198.977 101.72C197.324 100.173 196.497 98.2533 196.497 95.96C196.497 93.6133 197.324 91.6667 198.977 90.12C200.684 88.5733 202.924 87.8 205.697 87.8C208.417 87.8 210.604 88.5733 212.257 90.12C213.964 91.6667 214.817 93.6133 214.817 95.96C214.817 98.2533 213.964 100.173 212.257 101.72C210.604 103.213 208.417 103.96 205.697 103.96ZM213.457 108.12V153H197.777V108.12H213.457Z" fill="#5EEAD4"/>
</svg>
